<?xml version="1.0" encoding="iso-8859-1"?>
<!-- Generator: Adobe Illustrator 19.0.0, SVG Export Plug-In . SVG Version: 6.00 Build 0)  -->
<svg version="1.1" id="Layer_1" xmlns="http://www.w3.org/2000/svg" xmlns:xlink="http://www.w3.org/1999/xlink" x="0px" y="0px"
	 viewBox="0 0 298.9 298.9" style="enable-background:new 0 0 298.9 298.9;" xml:space="preserve">
<g>
	<g>
		<g>
			<path d="M122,99.125c-30.272,0-54.9,24.628-54.9,54.9s24.628,54.9,54.9,54.9s54.9-24.628,54.9-54.9S152.272,99.125,122,99.125z
				 M122,196.725c-23.545,0-42.7-19.155-42.7-42.7c0-23.545,19.155-42.7,42.7-42.7c23.545,0,42.7,19.155,42.7,42.7
				C164.7,177.57,145.545,196.725,122,196.725z"/>
			<path d="M122,120.475c-18.499,0-33.55,15.051-33.55,33.55s15.051,33.55,33.55,33.55s33.55-15.051,33.55-33.55
				S140.499,120.475,122,120.475z M122,175.375c-11.772,0-21.35-9.578-21.35-21.35s9.578-21.35,21.35-21.35s21.35,9.578,21.35,21.35
				S133.772,175.375,122,175.375z"/>
			<path d="M222.65,135.725h-18.3c-6.727,0-12.2,5.473-12.2,12.2v42.7c0,6.727,5.473,12.2,12.2,12.2h18.3
				c6.727,0,12.2-5.473,12.2-12.2v-42.7C234.85,141.198,229.377,135.725,222.65,135.725z M204.35,147.925h18.3v6.1h-18.3V147.925z
				 M204.35,166.225h18.3v6.1h-18.3V166.225z M222.651,190.625H204.35v-6.1h18.301V190.625z"/>
			<path d="M228.75,93.025h-30.5c-3.368,0-6.1,2.731-6.1,6.1v18.3c0,3.369,2.732,6.1,6.1,6.1h30.5c3.368,0,6.1-2.731,6.1-6.1v-18.3
				C234.85,95.756,232.118,93.025,228.75,93.025z M222.65,111.325h-18.3v-6.1h18.3V111.325z"/>
			<path d="M286.7,83.875h-27.45c0-10.091-8.209-18.3-18.3-18.3h-42.7v-12.2c0-6.727-5.473-12.2-12.2-12.2h-73.2
				c-6.727,0-12.2,5.473-12.2,12.2v12.2h-42.7c-10.091,0-18.3,8.209-18.3,18.3H12.2c-6.727,0-12.2,5.473-12.2,12.2v103.7
				c0,6.727,5.473,12.2,12.2,12.2h27.45v21.35c0,3.369,2.731,6.1,6.1,6.1h6.1v6.1c0,6.727,5.473,12.2,12.2,12.2h170.8
				c6.727,0,12.2-5.473,12.2-12.2v-6.1h6.1c3.368,0,6.1-2.731,6.1-6.1v-21.35h27.45c6.727,0,12.2-5.473,12.2-12.2v-103.7
				C298.9,89.348,293.427,83.875,286.7,83.875z M286.7,199.775h-27.45v-9.15h12.2c3.368,0,6.1-2.731,6.1-6.1v-76.25
				c0-3.369-2.732-6.1-6.1-6.1h-18.3v12.2h12.2v64.05h-6.1v-51.85h-12.2v79.3v21.35h-6.1c-3.368,0-6.1,2.731-6.1,6.1l0.001,12.2
				H64.05v-6.1h158.6v-12.2H57.95h-6.1v-21.35c0-3.369-2.731-6.1-6.1-6.1H12.2v-103.7h27.45v9.15h-12.2c-3.369,0-6.1,2.731-6.1,6.1
				v76.25c0,3.369,2.731,6.1,6.1,6.1h18.3v-12.2h-12.2v-64.05h6.1v51.85h12.2v-79.3v-6.1c0-3.364,2.736-6.1,6.1-6.1h48.8h67.1v-12.2
				h-61v-12.2h73.2v18.3c0,3.369,2.732,6.1,6.1,6.1h48.8c3.364,0,6.1,2.736,6.1,6.1v6.1c0,3.369,2.732,6.1,6.1,6.1h33.55V199.775z"
				/>
		</g>
	</g>
</g>
<g>
</g>
<g>
</g>
<g>
</g>
<g>
</g>
<g>
</g>
<g>
</g>
<g>
</g>
<g>
</g>
<g>
</g>
<g>
</g>
<g>
</g>
<g>
</g>
<g>
</g>
<g>
</g>
<g>
</g>
</svg>
