<?xml version="1.0" encoding="iso-8859-1"?>
<!-- Generator: Adobe Illustrator 19.0.0, SVG Export Plug-In . SVG Version: 6.00 Build 0)  -->
<svg version="1.1" id="Layer_1" xmlns="http://www.w3.org/2000/svg" xmlns:xlink="http://www.w3.org/1999/xlink" x="0px" y="0px"
	 viewBox="0 0 473.935 473.935" style="enable-background:new 0 0 473.935 473.935;" xml:space="preserve">
<circle style="fill:#4ABC96;" cx="236.967" cy="236.967" r="236.967"/>
<g>
	<path style="fill:#EEB488;" d="M224.964,195.972l-38.286-40.209l75.94,28.729l-1.908-57.605l17.227,16.108l35.102,60l8.947-24.89
		l0.629-23.614c0,0-20.419-24.89-9.575-33.83l30.642,16.599l12.76,40.202l-13.411,61.272c0,0,40.209,87.434,51.06,114.241
		l-34.458,18.503L224.964,195.972z"/>
	<polygon style="fill:#EEB488;" points="134.585,250.52 182.76,220.586 173.252,210.457 	"/>
	<path style="fill:#EEB488;" d="M186.97,280.454l12.161-1.403l21.515-17.306l-1.871,30.87
		C218.775,292.615,184.631,292.615,186.97,280.454z"/>
</g>
<path style="fill:#F7C192;" d="M118.061,269.847c-7.798-5.762,0.965-44.516,0.965-44.516l41.481-40.838l78.499,14.039
	l-53.609-40.845l-36.374-22.342c0,0-30.009-11.487-15.962-32.55l83.607,29.358l52.969,54.885l-7.023-36.374l-23.614-33.83
	c0,0-44.673-24.883-28.722-45.945l52.333,14.675l30.002,42.761l23.614,75.947l55.528,160.83l-84.886,44.673L149.653,301.921
	l-44.673-21.07c0,0,9.976-29.553,49.784-17.86c22.851,6.709,47.173,39.143,57.148,10.451c0,0,19.439-29.605-43.105-50.66
	l-22.997,21.976C145.81,244.754,132.07,280.178,118.061,269.847z"/>
<path style="fill:#343A36;" d="M429.366,375.208l-30.986-32.542c-13.096,0-119.737,69.223-119.737,69.223l36.864,48.658
	C361.685,444.319,401.296,414.212,429.366,375.208z"/>
<g>
</g>
<g>
</g>
<g>
</g>
<g>
</g>
<g>
</g>
<g>
</g>
<g>
</g>
<g>
</g>
<g>
</g>
<g>
</g>
<g>
</g>
<g>
</g>
<g>
</g>
<g>
</g>
<g>
</g>
</svg>
